<svg width="96" height="96" viewBox="0 0 96 96" xmlns="http://www.w3.org/2000/svg" role="img" aria-label="Duty Check">
  <defs>
    <linearGradient id="dcAmber" x1="0" y1="0" x2="1" y2="1">
      <stop offset="0%" stop-color="#f97316"/>
      <stop offset="100%" stop-color="#ea580c"/>
    </linearGradient>
  </defs>

  <!-- amber rounded-square badge -->
  <rect x="8" y="8" width="80" height="80" rx="20" fill="url(#dcAmber)"/>

  <!-- car glyph -->
  <g transform="translate(22,24)" fill="none" stroke="#ffffff" stroke-width="3.4" stroke-linecap="round" stroke-linejoin="round">
    <path d="M9 7h6m0 10v-3m-3 3h.01M9 17h.01M9 11h.01M12 11h.01M15 11h.01M4 19h16a2 2 0 002-2V7a2 2 0 00-2-2H4a2 2 0 00-2 2v10a2 2 0 002 2z"/>
  </g>

  <!-- "check" badge, bottom-right -->
  <circle cx="70" cy="70" r="19" fill="#0f0e0d"/>
  <path d="M61 70.5l6 6 12 -13" fill="none" stroke="#f97316" stroke-width="4.2" stroke-linecap="round" stroke-linejoin="round"/>
</svg>
